<svg xmlns="http://www.w3.org/2000/svg" viewBox="0 0 128 128"><path fill="#0DB7ED" d="M125 58.4c-1.6-.4-3.2-.8-4.9-1.1-.5-3.3-1.4-6.5-2.6-9.7-.3-.8-1.1-1.3-2-1.3-.9 0-1.7.5-2 1.3-1.2 3.1-2.1 6.3-2.6 9.6-1.8-.3-3.6-.6-5.4-.8-1.5-3.5-3.4-6.8-5.7-9.9-1.5-2-4.5-2.4-6.5-.9-2 1.5-2.4 4.5-.9 6.5 2.1 2.8 3.9 5.9 5.3 9.1-2.7.3-5.3.7-8 1.1-1.6-5.1-4-10-7.1-14.5-2.1-3-6.2-3.8-9.2-1.7-3 2.1-3.8 6.2-1.7 9.2 2.8 4 4.9 8.4 6.3 12.9-2.5.5-5 1.1-7.5 1.6-1.3-5.4-3.4-10.5-6.2-15.2-1.9-3.1-5.9-4.1-9-2.2-3.1 1.9-4.1 5.9-2.2 9 2.5 4.1 4.3 8.5 5.5 13-2.2.6-4.5 1.2-6.7 1.8-1.4-5.7-3.9-11.1-7.2-16-2.7-3.9-7.7-4.8-11.6-2.1-3.9 2.7-4.8 7.7-2.1 11.6 2.9 4.3 5 9 6.4 13.8-2 .7-4 1.4-6 2.1-1.5-6-4.2-11.7-7.9-16.9-3.1-4.2-8.6-5.2-12.8-2.1-4.2 3.1-5.2 8.6-2.1 12.8 3.3 4.5 5.6 9.4 6.9 14.5-1.7.8-3.5 1.5-5.2 2.2-1.6-6.3-4.5-12.2-8.6-17.4-3.5-4.4-9.4-5.2-13.8-1.7-4.4 3.5-5.2 9.4-1.7 13.8 3.7 4.6 6.2 9.7 7.5 15-1.4 1-2.9 1.9-4.3 2.8-1.8-6.6-5.1-12.6-9.5-17.7-3.9-4.5-10.2-5-14.7-1.1-4.5 3.9-5 10.2-1.1 14.7 3.9 4.5 6.6 9.5 8.1 14.8-1.2 1.1-2.4 2.2-3.6 3.2-2.1-6.9-5.9-13.1-10.9-18.4-4.4-4.4-11.1-4.4-15.5 0-4.4 4.4-4.4 11.1 0 15.5 4.5 4.8 7.8 10.4 9.6 16.3-.9 1.2-1.9 2.3-2.9 3.4-2.4-7.1-6.8-13.4-12.5-18.4-4.9-4.1-12-3.4-16.1 1.5-4.1 4.9-3.4 12 1.5 16.1 5.2 4.3 9 9.4 11.4 14.9-.7 1.3-1.5 2.6-2.2 3.8-2.7-7.3-7.7-13.7-14-18.3-5.3-3.8-12.4-2.5-16.2 2.8-3.8 5.3-2.5 12.4 2.8 16.2 5.8 4.1 10.2 9.6 12.8 15.5-.5 1.4-1 2.8-1.5 4.1-3-7.5-8.4-14-15-18.4-5.7-3.6-13.1-1.6-16.7 4.1-3.6 5.7-1.6 13.1 4.1 16.7 6.1 3.8 10.7 9.5 13.3 15.7-.3 1.5-.6 3-.8 4.4-3.2-7.6-9.1-14-16.2-17.8-6-3.1-13.3-.7-16.4 5.3-3.1 6-0.7 13.3 5.3 16.4 6.5 3.3 11.3 9 14.1 15.4-.1 1.6-.2 3.2-.3 4.7-3.4-7.6-9.8-13.5-17.3-16.7-6.3-2.6-13.4.2-16 6.5-2.6 6.3.2 13.4 6.5 16 6.9 2.8 12 8.2 14.7 14.5.2 1.7.3 3.4.4 5-3.6-7.5-10.4-12.8-18.3-14.7-6.5-1.6-13.2 1.2-14.8 7.7-1.6 6.5 1.2 13.2 7.7 14.8 7.2 1.7 12.6 6.5 14.4 13.3.5 1.8.7 3.6.9 5.3-3.7-7.3-10.9-11.9-19-12.5-6.7-.5-13.1 2.3-13.6 9-.5 6.7 2.3 13.1 9 13.6 7.3.5 13.2 4.6 13.7 11.9.8 2 .9 4 .9 5.6-3.8-7-11.4-10.7-19.6-10.7-6.8 0-13.1 3.3-13.1 10.1 0 6.8 6.3 10.1 13.1 10.1 7.4 0 13.7-2.4 12.9-10.5z"/></svg>
