<svg xmlns="http://www.w3.org/2000/svg" viewBox="0 0 24 24" fill="#412991"><path d="M22.2819 9.8211a5.9847 5.9847 0 0 0-.5157-4.9108 6.0462 6.0462 0 0 0-6.5098-2.9A6.0651 6.0651 0 0 0 4.9807 4.1818a5.9847 5.9847 0 0 0-3.9977 2.9 6.0462 6.0462 0 0 0 .7427 7.0966 5.98 5.98 0 0 0 .511 4.9107 6.051 6.051 0 0 0 6.5146 2.9001A5.9847 5.9847 0 0 0 13.2599 24a6.0557 6.0557 0 0 0 5.7718-4.2058 5.9894 5.9894 0 0 0 3.9977-2.9001 6.0557 6.0557 0 0 0-.7475-7.0729zm-9.022 12.6081a4.4755 4.4755 0 0 1-2.8764-1.0408l.1419-.0804 4.7783-2.7582a.7948.7948 0 0 0 .3927-.6813v-6.7369l2.02 1.1686a.071.071 0 0 1 .038.052v5.5826a4.504 4.504 0 0 1-4.4945 4.4944zm-9.6607-4.1254a4.4708 4.4708 0 0 1-.5346-3.0137l.142.0852 4.783 2.7582a.7712.7712 0 0 0 .7806 0l5.8428-3.3685v-2.3325l-2.0201-1.1638a.0757.0757 0 0 1-.038-.056V5.0744a4.4994 4.4994 0 0 1-6.961 3.7526zm-2.8764-8.663a4.485 4.485 0 0 1 2.3655-1.9728V11.917l-2.02-1.1686a.077.077 0 0 1-.039-.054V5.0744a4.4994 4.4994 0 0 1 .6935-2.4062zm15.0963 3.8558v2.3325l-2.02 1.1638a.076.076 0 0 1-.039.056v5.5826a4.504 4.504 0 0 1-6.961-3.7526v-5.6772l2.0201-1.1686a.7948.7948 0 0 0 .3927-.6813V6.7264l5.8418-3.3685a.7712.7712 0 0 1 .7806 0z"/></svg>
